<?xml version="1.0" encoding="utf-8"?>
<svg
    width="100"
    height="37"
    viewBox="0 0 137 51"
    xmlns="http://www.w3.org/2000/svg"
    xmlns:xlink="http://www.w3.org/1999/xlink"
    style="enable-background:new 0 0 137 51;"
    xml:space="preserve">
    <!-- Generator: Adobe Illustrator 25.4.1, SVG Export Plug-In . SVG Version: 6.00 Build 0) -->
    <style type="text/css">
        .st0 { clip-path: url(#SVGID_00000008867746960056532630000003980398032834434234_); }
        .st1 { fill: #EC5A29; }
        .st2 { clip-path: url(#SVGID_00000003106249277741611360000014243992088300152460_); }
        .st3 { clip-path: url(#SVGID_00000005246976892713243100000008799358621145438393_); }
        .st4 { fill: #2582C5; }
        .st5 { clip-path: url(#SVGID_00000085947084027568212770000002439483337037016749_); }
        .st6 { fill: #213E63; }
        .st7 { clip-path: url(#SVGID_00000015353420272480710600000014882306072362122113_); }
        .st8 { clip-path: url(#SVGID_00000015338116420275659700000008044971324719753895_); }
        .st9 { clip-path: url(#SVGID_00000183228586973064043520000012565119037445504656_); }
        .st10 { clip-path: url(#SVGID_00000094594573623758098170000010900247255487792271_); }
    </style>
    <g>
        <g>
            <defs>
                <rect id="SVGID_1_" x="-6.1" y="-14.8" width="149.2" height="82.9"/>
            </defs>
            <clipPath id="SVGID_00000116916558666123359050000010870906209349886363_">
                <use xlink:href="#SVGID_1_" style="overflow:visible;" />
            </clipPath>
            <g style="clip-path:url(#SVGID_00000116916558666123359050000010870906209349886363_);">
                <path class="st1" d="M101.9,38.7c-5.6,0-10.6-3.6-12.4-9c0,0.1,0,0.3-0.1,0.4c0,0.1-0.1,0.3-0.1,0.4c0,0.2-0.1,0.3-0.1,0.5
                    c0,0.1-0.1,0.3-0.1,0.4S89,31.8,88.9,32s-0.1,0.2-0.1,0.3l-0.3,0.9c0,0.1-0.1,0.2-0.1,0.3l-0.3,0.6c0,0.1-0.1,0.2-0.1,0.3
                    c-0.1,0.3-0.2,0.5-0.4,0.8c-0.1,0.2-0.2,0.4-0.4,0.6c3.3,4.9,8.9,7.8,14.8,7.7c9,0,16.6-6.7,17.8-15.6H115
                    C113.8,34.1,108.3,38.7,101.9,38.7" />
            </g>
        </g>
	<g>
		<defs>
			<rect id="SVGID_00000092448954344845531090000017648907096775759244_" x="-6.1" y="-14.8" width="149.2" height="82.9"/>
		</defs>
		<clipPath id="SVGID_00000056386273582054861400000004182399204604551301_">
			<use xlink:href="#SVGID_00000092448954344845531090000017648907096775759244_"  style="overflow:visible;"/>
		</clipPath>
		<g style="clip-path:url(#SVGID_00000056386273582054861400000004182399204604551301_);">
			<path class="st1" d="M85.9,15c-5.7-9.2-17.8-12-27-6.2c-2.4,1.5-4.4,3.4-5.9,5.7C48.7,6.1,40.1,0.8,30.7,0.7
				C17.6,0.6,6.8,10.7,5.8,23.8h5.8c0.8-10.5,10-18.3,20.5-17.5c9.3,0.7,16.7,8.2,17.5,17.5h5c0.9-8.1,8.2-13.9,16.3-13
				c5.8,0.6,10.7,4.7,12.4,10.3c0.4-2,1.2-3.9,2.2-5.6C85.7,15.3,85.8,15.1,85.9,15"/>
		</g>
	</g>
	<g>
		<defs>
			<rect id="SVGID_00000071539337635863146690000017393613562679573933_" x="-6.1" y="-14.8" width="149.2" height="82.9"/>
		</defs>
		<clipPath id="SVGID_00000060009469842169547010000010753412927937798549_">
			<use xlink:href="#SVGID_00000071539337635863146690000017393613562679573933_"  style="overflow:visible;"/>
		</clipPath>
		<g style="clip-path:url(#SVGID_00000060009469842169547010000010753412927937798549_);">
			<path class="st4" d="M88.9,25.5v-1.1c0.5-6.8,6.2-12.1,13-12.1c6.6,0,12.1,4.8,13.1,11.3h4.8c-1-9.1-8.7-16-17.9-16
				C92.4,7.6,84.6,15,84,24.5v1.9c-0.6,8.1-7.6,14.2-15.7,13.6c-7-0.5-12.6-5.8-13.5-12.8h-5.1c-1.2,10.5-10.7,18-21.2,16.8
				c-8.8-1-15.7-8-16.8-16.8H5.8c1.1,12.9,11.9,22.9,24.9,22.9c9.4-0.1,18-5.4,22.3-13.7l0,0c6,9,18.2,11.5,27.3,5.5
				c5.1-3.4,8.4-9,8.7-15.2C88.9,26.3,88.9,25.9,88.9,25.5"/>
		</g>
	</g>
	<g>
		<defs>
			<rect id="SVGID_00000146458159872159000330000018415809157095731391_" x="-6.1" y="-14.8" width="149.2" height="82.9"/>
		</defs>
		<clipPath id="SVGID_00000152230307995914142310000004114767165175792317_">
			<use xlink:href="#SVGID_00000146458159872159000330000018415809157095731391_"  style="overflow:visible;"/>
		</clipPath>
		<g style="clip-path:url(#SVGID_00000152230307995914142310000004114767165175792317_);">
			<path class="st6" d="M30.6,9.9c-8.7,0-15.7,7-15.7,15.7s7,15.7,15.7,15.7s15.7-7,15.7-15.7l0,0C46.3,16.9,39.3,9.9,30.6,9.9
				C30.7,9.9,30.6,9.9,30.6,9.9 M30.8,36.2c-5.9,0-10.6-4.7-10.6-10.6c0-5.9,4.7-10.6,10.6-10.6s10.6,4.7,10.6,10.6c0,0,0,0,0,0
				C41.4,31.4,36.7,36.2,30.8,36.2"/>
		</g>
	</g>
	<g>
		<defs>
			<rect id="SVGID_00000027566964794862574500000016396845756880038567_" x="-6.1" y="-14.8" width="149.2" height="82.9"/>
		</defs>
		<clipPath id="SVGID_00000034060050990343498540000013017817094441868175_">
			<use xlink:href="#SVGID_00000027566964794862574500000016396845756880038567_"  style="overflow:visible;"/>
		</clipPath>
		<g style="clip-path:url(#SVGID_00000034060050990343498540000013017817094441868175_);">
			<rect x="122.6" y="11.8" class="st6" width="5.6" height="27.6"/>
		</g>
	</g>
	<g>
		<defs>
			<rect id="SVGID_00000080885120677626901820000011308353435199394433_" x="-6.1" y="-14.8" width="149.2" height="82.9"/>
		</defs>
		<clipPath id="SVGID_00000156579071974559371040000017631341066375503754_">
			<use xlink:href="#SVGID_00000080885120677626901820000011308353435199394433_"  style="overflow:visible;"/>
		</clipPath>
		<g style="clip-path:url(#SVGID_00000156579071974559371040000017631341066375503754_);">
			<path class="st6" d="M59.6,26.4c-0.7,0-1.5-0.3-2-0.8c-0.6-0.5-0.9-1.2-0.8-2c0-0.7,0.3-1.5,0.8-2c0.5-0.6,1.2-0.9,2-0.9h4.5V23
				h-4.5c-0.3,0-0.6,0.2-0.6,0.4c0,0.1,0,0.1,0,0.2c0,0.3,0.3,0.6,0.6,0.6h2.2c0.8,0,1.5,0.3,2,0.9c0.5,0.5,0.8,1.2,0.8,2
				c0,0.7-0.3,1.5-0.8,2c-0.5,0.5-1.2,0.8-2,0.8h-4.5v-2.3h4.5c0.2,0,0.3-0.1,0.4-0.2c0.1-0.1,0.2-0.2,0.2-0.4
				c0-0.2-0.1-0.3-0.2-0.4c-0.1-0.1-0.2-0.2-0.4-0.2H59.6z"/>
		</g>
	</g>
	<g>
		<defs>
			<rect id="SVGID_00000132071968534674321770000006842851474781156509_" x="-6.1" y="-14.8" width="149.2" height="82.9"/>
		</defs>
		<clipPath id="SVGID_00000178179701274322621750000011981611992656035221_">
			<use xlink:href="#SVGID_00000132071968534674321770000006842851474781156509_"  style="overflow:visible;"/>
		</clipPath>
		<g style="clip-path:url(#SVGID_00000178179701274322621750000011981611992656035221_);">
			<path class="st6" d="M70.8,25.1v4.7h-2.3v-4.7c-1-0.2-1.8-0.8-2.4-1.6c-0.6-0.8-1-1.8-1-2.8h2.3c0,0.6,0.2,1.2,0.7,1.6
				c0.4,0.4,1,0.7,1.6,0.7c0.6,0,1.2-0.2,1.6-0.7c0.5-0.4,0.7-1,0.7-1.6h2.3c0,1-0.3,2-1,2.8C72.6,24.2,71.8,24.8,70.8,25.1"/>
		</g>
	</g>
	<g>
		<defs>
			<rect id="SVGID_00000107567415461623681630000013777917707640347823_" x="-6.1" y="-14.8" width="149.2" height="82.9"/>
		</defs>
		<clipPath id="SVGID_00000022558077797158828140000006203581965543511689_">
			<use xlink:href="#SVGID_00000107567415461623681630000013777917707640347823_"  style="overflow:visible;"/>
		</clipPath>
		<g style="clip-path:url(#SVGID_00000022558077797158828140000006203581965543511689_);">
			<path class="st6" d="M77.5,26.4c-0.7,0-1.5-0.3-2-0.8c-0.6-0.5-0.9-1.2-0.8-2c0-0.7,0.3-1.5,0.8-2c0.5-0.6,1.2-0.9,2-0.9H82V23
				h-4.5c-0.3,0-0.6,0.2-0.6,0.4c0,0.1,0,0.1,0,0.2c0,0.3,0.3,0.6,0.6,0.6h2.2c0.8,0,1.5,0.3,2,0.9c0.5,0.5,0.8,1.2,0.8,2
				c0,0.7-0.3,1.5-0.8,2c-0.5,0.5-1.2,0.8-2,0.8h-4.5v-2.3h4.5c0.2,0,0.3-0.1,0.4-0.2c0.1-0.1,0.2-0.2,0.2-0.4
				c0-0.2-0.1-0.3-0.2-0.4c-0.1-0.1-0.2-0.2-0.4-0.2H77.5z"/>
		</g>
	</g>
	<path class="st6" d="M91.7,24.5h0.8v1.4c0,0.2,0,0.5-0.1,0.7c-0.1,0.2-0.2,0.3-0.3,0.4c-0.2,0.1-0.4,0.2-0.6,0.2
		c-0.3,0-0.5,0-0.6-0.1s-0.3-0.2-0.3-0.3c0-0.2-0.1-0.3-0.1-0.5l0.8-0.1v0.3c0,0.1,0,0.1,0.1,0.1h0.1c0.1,0,0.2,0,0.2-0.1
		s0.1-0.2,0.1-0.3L91.7,24.5L91.7,24.5z"/>
	<path class="st6" d="M94.7,24.5h0.8V26c0,0.2,0,0.3-0.1,0.4c0,0.2-0.1,0.3-0.2,0.4C95.1,26.9,95,27,94.9,27
		c-0.2,0.1-0.4,0.1-0.6,0.1h-0.4c-0.1,0-0.3-0.1-0.4-0.1s-0.2-0.1-0.3-0.2s-0.1-0.2-0.2-0.3s-0.1-0.3-0.1-0.4v-1.5h0.8v1.6
		c0,0.1,0,0.3,0.1,0.3s0.2,0.1,0.3,0.1c0.2,0,0.4-0.1,0.4-0.3c0,0,0-0.1,0-0.1v-1.7H94.7z"/>
	<path class="st6" d="M95.9,26.2h0.8c0,0.1,0,0.2,0.1,0.3c0.1,0.1,0.2,0.2,0.4,0.2c0.1,0,0.2,0,0.3-0.1c0.1-0.1,0.1-0.1,0.1-0.2
		s0-0.1-0.1-0.2s-0.2-0.1-0.4-0.2c-0.2-0.1-0.5-0.2-0.7-0.3c-0.2-0.1-0.2-0.3-0.2-0.5c0-0.1,0-0.3,0.1-0.4l0.3-0.3
		c0.2-0.1,0.4-0.1,0.6-0.1c0.3,0,0.6,0.1,0.8,0.2c0.2,0.1,0.3,0.4,0.3,0.6h-0.8c0-0.1-0.1-0.2-0.1-0.3c-0.1-0.1-0.2-0.1-0.3-0.1
		c-0.1,0-0.2,0-0.2,0.1L96.8,25c0,0.1,0,0.1,0.1,0.1c0.1,0.1,0.2,0.1,0.3,0.1c0.3,0.1,0.5,0.2,0.8,0.2c0.2,0.1,0.3,0.2,0.3,0.3
		c0.1,0.1,0.1,0.2,0.1,0.4c0,0.2,0,0.3-0.1,0.5c-0.1,0.2-0.2,0.2-0.4,0.3c-0.2,0.1-0.4,0.1-0.6,0.1c-0.3,0-0.7-0.1-0.9-0.3
		C96.2,26.5,95.9,26.5,95.9,26.2z"/>
	<path class="st6" d="M98.5,24.5h2.4v0.6h-0.8V27h-0.8v-1.9h-0.8L98.5,24.5z"/>
	<path class="st6" d="M102.5,24.5h0.8v2.6h-0.8V24.5z"/>
	<path class="st6" d="M103.8,24.5h1l0.4,1.6l0.4-1.6h1v2.6h-0.7v-2l-0.5,2H105l-0.5-2v2h-0.7L103.8,24.5z"/>
	<path class="st6" d="M108.8,26.6h-0.9l-0.1,0.4H107l1-2.6h0.9l1,2.6H109L108.8,26.6z M108.7,26.1l-0.3-0.9l-0.3,0.9H108.7z"/>
	<path class="st6" d="M111.3,26.1v-0.5h1.2v1.1c-0.2,0.2-0.4,0.3-0.6,0.3c-0.2,0.1-0.4,0.1-0.6,0.1c-0.3,0-0.6-0.1-0.8-0.2
		c-0.2-0.1-0.3-0.3-0.4-0.5c-0.3-0.4-0.3-1,0-1.4c0.1-0.2,0.3-0.4,0.5-0.5c0.2-0.1,0.5-0.1,0.7-0.1c0.3,0,0.5,0,0.6,0.1
		s0.3,0.1,0.4,0.2c0.1,0.1,0.2,0.2,0.2,0.4l-0.8,0.1c0-0.1-0.1-0.2-0.2-0.2c-0.1-0.1-0.2-0.1-0.3-0.1c-0.2,0-0.3,0.1-0.4,0.2
		c-0.3,0.4-0.3,0.8,0,1.2c0.1,0.1,0.2,0.2,0.4,0.2h0.3c0.1,0,0.2-0.1,0.3-0.1v-0.2h-0.5L111.3,26.1z"/>
	<path class="st6" d="M113,24.5h0.8v2.6H113V24.5z"/>
	<path class="st6" d="M114.4,24.5h0.7l1,1.4v-1.4h0.8v2.6h-0.8l-1-1.4v1.4h-0.8v-2.6H114.4z"/>
	<path class="st6" d="M117.4,24.5h2.1v0.6h-1.3v0.4h1.2V26h-1.2v0.5h1.4v0.6h-2.2V24.5z"/>
</g>
</svg>
