<svg width="736" height="816" viewBox="0 0 46 51" fill="none" xmlns="http://www.w3.org/2000/svg">
	<style type="text/css">
		.st0{fill:none;}
		.st1{fill:#213E63;}
		.st2{fill:#EC5A29;}
		.st3{fill:#2582C5;}
	</style>
	<rect x="0" y="0" class="st0" width="46" height="51"/>
	<g transform="translate(10, 10)">
		<g>
			<path class="st1" d="M18.6,7.1c-6.3,0-11.4,5.1-11.4,11.4s5.1,11.4,11.4,11.4S30,24.8,30,18.5l0,0C30,12.2,24.9,7.1,18.6,7.1
        C18.6,7.1,18.6,7.1,18.6,7.1 M18.7,26.2c-4.3,0-7.7-3.4-7.7-7.7s3.4-7.7,7.7-7.7s7.7,3.4,7.7,7.7l0,0C26.4,22.7,23,26.2,18.7,26.2"/>
		</g>
		<g>
			<g>
				<path class="st2" d="M18.6,5c7.1,0,12.9,5.5,13.5,12.4h4.7C36.2,7.9,28.2,0.3,18.6,0.3S1,7.9,0.4,17.4h4.7
          C5.7,10.5,11.5,5,18.6,5z"/>
			</g>
			<g>
				<path class="st3" d="M36.7,19.8c-0.7,9.4-8.6,16.9-18.2,16.9S1.1,29.3,0.4,19.8h4.7c0.3,3.4,1.9,6.4,4.3,8.6
          c1.1,1,2.3,1.9,3.7,2.5c0.4,0.2,0.7,0.3,1.1,0.4c1.2,0.4,2.4,0.6,3.7,0.7c0.2,0,0.4,0,0.6,0c0.2,0,0.4,0,0.6,0
          c1.3-0.1,2.6-0.3,3.7-0.7c0.4-0.1,0.8-0.3,1.2-0.5c1.4-0.6,2.6-1.5,3.7-2.5c2.3-2.2,3.9-5.2,4.3-8.6H36.7z"/>
			</g>
		</g>
	</g>
</svg>